<?xml version="1.0" standalone="no"?>
<!DOCTYPE svg PUBLIC "-//W3C//DTD SVG 20010904//EN"
 "http://www.w3.org/TR/2001/REC-SVG-20010904/DTD/svg10.dtd">
<svg version="1.0" xmlns="http://www.w3.org/2000/svg"
 width="292.000000pt" height="292.000000pt" viewBox="0 0 292.000000 292.000000"
 preserveAspectRatio="xMidYMid meet">
<metadata>
Created by potrace 1.11, written by Peter Selinger 2001-2013
</metadata>
<g transform="translate(0.000000,292.000000) scale(0.100000,-0.100000)"
fill="#000000" stroke="none">
<path d="M0 1460 l0 -1460 1460 0 1460 0 0 1460 0 1460 -1460 0 -1460 0 0
-1460z m863 1265 c77 -16 186 -70 246 -122 61 -51 130 -154 159 -236 34 -93
38 -259 8 -347 -63 -186 -192 -316 -376 -376 -39 -13 -86 -18 -160 -18 -74 0
-121 5 -160 18 -184 60 -313 190 -376 376 -30 88 -26 254 8 347 29 82 98 185
159 236 131 113 318 159 492 122z m1440 -1440 c77 -16 186 -70 246 -122 61
-51 130 -154 159 -236 34 -93 38 -259 8 -347 -64 -189 -199 -322 -381 -376
-80 -24 -230 -24 -310 0 -182 54 -317 187 -381 376 -30 88 -26 254 8 347 29
82 98 185 159 236 131 113 318 159 492 122z"/>
</g>
</svg>
